<?xml version="1.0" encoding="utf-8"?>
<!DOCTYPE svg PUBLIC "-//W3C//DTD SVG 1.0//EN" "http://www.w3.org/TR/2001/REC-SVG-20010904/DTD/svg10.dtd">
<svg version="1.0" xmlns="http://www.w3.org/2000/svg" width="364px" height="138px" viewBox="0 0 364 138" preserveAspectRatio="xMidYMid meet">
 <style>
   /* Default logo color (light mode) */
   svg { color: #111; }
   /* Prefer dark mode: make currentColor light */
   @media (prefers-color-scheme: dark) {
     svg { color: #e8e8e8; }
   }
 </style>
 <g fill="none">
  <path d="M0 69 l0 -69 182 0 182 0 0 69 0 69 -182 0 -182 0 0 -69z m102.50 58.60 c0.85 -0.25 -0.20 -0.45 -3.25 -0.60 l-4.50 -0.25 0 -7.50 0 -7.50 4.35 -0.15 4.35 -0.15 0.15 1.60 c0.10 0.90 0.45 1.75 0.85 1.85 0.55 0.20 0.60 -0.10 0.35 -1.20 -0.60 -2.35 -1.50 -2.90 -5.25 -3.10 -3.20 -0.20 -3.60 -0.10 -4.75 1.05 -1.25 1.25 -1.30 1.50 -1.30 7.80 0 6.40 0 6.50 1.30 7.50 1.40 1.10 5.15 1.40 7.70 0.65z m18.75 -0.85 c1 -1 1.25 -1.70 1.25 -3.90 l0 -2.70 2.30 -0.35 c4.35 -0.60 4.15 -0.75 4.30 3.80 0.10 2.70 0.35 4.15 0.80 4.30 0.45 0.15 0.60 -0.90 0.60 -4.10 l0 -4.30 3.45 0 c1.95 0 3.65 -0.20 3.80 -0.50 0.15 -0.25 2 -0.50 4.05 -0.50 l3.70 0 0 4.75 c0 2.85 0.20 4.75 0.50 4.75 0.30 0 0.50 -1.75 0.50 -4.25 l0 -4.25 3.75 0 c3.65 0 3.75 -0.05 3.75 -1.25 0 -1.20 0.10 -1.25 3.75 -1.25 l3.75 0 0 5.50 0 5.50 5 0 c3 0 5 -0.20 5 -0.50 0 -0.30 -1.85 -0.50 -4.50 -0.50 l-4.50 0 0 -3.75 0 -3.75 3.75 0 3.75 0 0 -2 0 -2 4 0 4 0 0 6.25 0 6.25 4.95 0 c6.45 0 7.20 -0.90 0.95 -1.10 l-4.65 -0.15 0 -3.50 0 -3.50 3.65 -0.15 c4.60 -0.20 4.70 -1.10 0.10 -1.10 l-3.50 0 0 -1.75 c0 -2.10 -0.40 -2 10.25 -2.70 11.65 -0.80 11.75 -0.80 11.75 0.65 0 0.65 0.35 1.45 0.75 1.80 0.65 0.55 0.75 0.35 0.75 -1.40 0 -1.80 0.15 -2 1.55 -2.30 2.65 -0.50 5.85 -0.35 6.10 0.35 0.15 0.40 0.45 0.30 0.95 -0.35 0.70 -0.85 1.65 -1 9.85 -1.20 l9.05 -0.25 0 8.35 c0 5.20 0.20 8.30 0.50 8.30 0.30 0 0.50 -3.10 0.50 -8.25 l0 -8.25 2.75 0 c2 0 2.75 -0.20 2.75 -0.70 0 -0.65 2.05 -1.30 4.30 -1.30 l1.20 0 0.10 9.15 0.15 9.10 5.15 0.15 c3.25 0.10 5.10 -0.05 5.10 -0.40 0 -0.30 -1.75 -0.50 -4.50 -0.50 l-4.50 0 0 -3.75 0 -3.75 3.50 0 c2 0 3.50 -0.20 3.50 -0.50 0 -0.30 -1.50 -0.50 -3.50 -0.50 l-3.50 0 0 -3.50 0 -3.50 4.50 0 c2.65 0 4.50 -0.20 4.50 -0.50 0 -0.25 -0.80 -0.50 -1.75 -0.50 -1.65 0 -1.75 -0.10 -1.75 -1.75 0 -1.25 0.30 -1.95 1.05 -2.35 1.85 -1.15 3.35 -4.95 4.20 -10.70 0.45 -3 1.45 -9.75 2.25 -15.05 0.85 -5.30 1.50 -10.30 1.50 -11.15 0 -1.40 0.15 -1.50 1.75 -1.50 l1.75 0 0 14.50 0 14.50 2.25 0 2.25 0 0.10 -14.60 0.15 -14.65 4.65 -0.15 4.60 -0.15 0 -1.70 0 -1.75 -8.85 -0.10 -8.80 -0.15 -0.90 -2.65 c-2.30 -6.80 -7.35 -12.45 -13.55 -15.35 -6.65 -3 -6.60 -3 -31.40 -0.80 -12.25 1.10 -26.40 2.35 -31.50 2.75 -10.55 0.90 -15.05 1.30 -31.50 2.85 -6.45 0.65 -15.05 1.15 -19.05 1.15 -7.20 0.05 -7.30 0.05 -9.10 -1.35 -2.95 -2.20 -3.60 -3.90 -3.60 -9.10 0 -4.90 0.50 -6.40 3.05 -8.95 1.80 -1.75 4.35 -3.05 6.95 -3.55 2.50 -0.45 4.15 -1.30 5.95 -3.05 2.65 -2.70 3.30 -4.65 3.30 -10.15 l0 -4.95 -1.85 0.20 c-1.05 0.10 -5.45 0.55 -9.80 0.95 -6.85 0.60 -8.20 0.85 -10.10 1.95 -2.50 1.50 -3.95 3.15 -4.85 5.60 -0.50 1.45 -0.85 1.70 -2.20 1.70 -1.30 0 -1.70 -0.30 -2.20 -1.50 -0.90 -2.15 -4.15 -4.90 -6.25 -5.30 -1 -0.15 -4.20 -0.05 -7.15 0.25 -2.95 0.30 -7.25 0.70 -9.50 0.85 l-4.20 0.35 0.20 5.35 c0.15 4.85 0.30 5.50 1.50 7.40 1.85 2.75 3.70 3.60 8.60 4.05 5.95 0.55 8.70 2.35 9.80 6.50 0.90 3.35 3.65 21.80 3.70 24.55 0 1.50 -0.40 3.75 -0.90 5 -0.65 1.65 -0.85 3.05 -0.65 5.25 0.25 2.70 0.45 3.15 2.35 4.95 1.80 1.65 2.15 2.35 2.60 5.05 0.75 4.35 0.50 4.75 -2.65 4.75 l-2.60 0 0.35 2.10 c0.55 3.35 1.80 5 4.55 6.10 1.40 0.55 2.55 1 2.60 1.05 0.05 0 0.30 1.90 0.65 4.25 0.30 2.35 0.80 5.05 1.15 6 0.35 1.05 0.60 4.95 0.60 9.60 0 5.60 0.20 8 0.65 8.45 0.50 0.50 0.60 -0.45 0.60 -4.95 l0 -5.60 1.75 0 c0.95 0 1.75 0.20 1.75 0.45 0 0.20 1.35 1.15 3 2 l3.05 1.65 -0.15 3.55 -0.15 3.60 -4.50 0.15 c-5.15 0.15 -5.05 1.10 0.15 1.10 2.70 0 3.35 -0.20 4.35 -1.25z m89.10 0.90 c0.55 -0.25 -0.75 -0.50 -3.35 -0.65 l-4.25 -0.25 -0.15 -2.60 c-0.20 -3.20 -1.10 -3.55 -1.10 -0.45 0 3 1.55 4.30 5.30 4.30 1.45 0 3.05 -0.15 3.55 -0.35z m60.40 -1.75 c-0.35 -1.20 -1.10 -3.50 -1.65 -5.15 l-1 -3 -0.05 2.40 -0.05 2.35 -3.25 0 -3.25 0 -0.05 -1.85 0 -1.90 -1 2.75 c-0.55 1.50 -0.85 2.95 -0.75 3.25 0.10 0.25 0.25 0.10 0.25 -0.35 0.05 -0.70 0.50 -0.90 1.95 -0.90 1 0 3.05 -0.15 4.45 -0.30 2.85 -0.35 2.75 -0.45 4.30 3.95 0.65 1.80 0.70 0.75 0.10 -1.25z m-166.05 -0.50 c0.40 -1.55 0.35 -1.90 -0.15 -1.90 -0.25 0 -0.55 0.70 -0.65 1.50 -0.25 1.75 0.35 2.05 0.80 0.40z m107.80 -2.70 c0 -2.85 0.10 -3.20 1 -3.20 0.55 0 1 -0.20 1 -0.50 0 -0.30 -2.25 -0.50 -5.75 -0.50 -3.50 0 -5.75 0.20 -5.75 0.50 0 0.30 1.75 0.50 4.25 0.50 l4.25 0 0 3.55 c0 2.20 0.20 3.40 0.50 3.20 0.30 -0.15 0.50 -1.75 0.50 -3.55z m53.80 -10.50 c-0.15 -0.45 -0.30 -1 -0.30 -1.25 0 -0.80 -1.90 -0.50 -2.20 0.35 -0.55 1.40 -0.30 1.70 1.25 1.70 1.20 0 1.50 -0.15 1.25 -0.80z m51.70 -15.80 c3.60 -1.85 3.75 -2.40 3.75 -15.90 0 -13.50 -0.20 -14.35 -3.90 -16.05 -3 -1.35 -12.70 -1.35 -15.70 0 -3.70 1.70 -3.90 2.55 -3.90 16.05 0 10.40 0.10 11.95 0.90 13.40 1.50 2.75 4.05 3.60 10.85 3.60 5 0 6.10 -0.15 8 -1.10z m-305.55 -5.50 l-0.20 -6.15 6.75 -0.25 c7.50 -0.30 8.95 -0.75 10.50 -3.25 0.85 -1.35 1 -2.50 1 -6.95 0 -6.10 -0.50 -7.60 -3.20 -9.25 -1.60 -1 -2.30 -1.05 -10.65 -0.95 l-8.90 0.15 -0.15 15.75 c-0.05 8.65 0 16 0.15 16.35 0.10 0.40 1.15 0.65 2.55 0.65 l2.35 0 -0.20 -6.10z m31.05 -0.35 l0 -6.40 4.10 -0.35 c3.05 -0.25 4.20 -0.20 4.65 0.30 0.30 0.35 1.75 3.40 3.25 6.80 l2.65 6.10 1.85 0 1.90 0 -2.20 -4.85 c-2.70 -6.05 -2.85 -8.10 -0.70 -9.65 2.45 -1.75 3 -3.40 3 -8.75 0 -5.45 -0.65 -7.25 -3.15 -8.75 -1.45 -0.90 -2.55 -1 -10.40 -1 l-8.85 0 -0.15 1.40 c-0.10 0.75 -0.15 8.15 -0.05 16.50 l0.15 15.10 1.95 0 2 0 0 -6.45z m49.50 4.45 l0 -2 -8.25 0 -8.25 0 0 -5.50 0 -5.50 6.50 0 6.50 0 0 -2 0 -2 -6.50 0 -6.50 0 0 -5 0 -5 8.25 0 8.25 0 0 -2 0 -2 -10.50 0 -10.50 0 0 16.50 0 16.50 10.50 0 10.50 0 0 -2z m196 -14.50 l0 -16.50 -2.25 0 -2.25 0 0 16.50 0 16.50 2.25 0 2.25 0 0 -16.50z m46 4.50 l0 -12 1.65 0 c1.50 0 1.75 0.25 3.55 3.65 1.05 1.95 3.95 7.40 6.40 12 l4.50 8.40 2.60 -0.15 2.55 -0.15 0 -16.25 0 -16.25 -2.20 -0.15 -2.20 -0.15 0.25 11.75 0.25 11.80 -1.95 0 c-1.05 0 -1.90 -0.20 -1.90 -0.45 0 -0.25 -1.05 -2.30 -2.35 -4.60 -3 -5.45 -7.40 -13.65 -8.80 -16.35 -1.05 -2.15 -1.10 -2.15 -3.60 -2 l-2.50 0.15 -0.15 16.40 -0.10 16.35 2 0 2 0 0 -12z"/>
  <path d="M303.40 92.95 c-0.80 -0.45 -0.90 -1.60 -0.90 -12.35 0 -8.60 0.15 -12.05 0.60 -12.50 0.75 -0.75 12.05 -0.85 13.45 -0.10 0.90 0.50 0.95 1.20 0.95 12.25 0 9.95 -0.10 11.80 -0.80 12.45 -0.60 0.65 -1.95 0.80 -6.60 0.80 -3.20 0 -6.25 -0.25 -6.70 -0.55z"/>
  <path d="M12.30 80.10 c-0.10 -0.20 -0.10 -3.05 0.05 -6.25 l0.30 -5.90 6.55 0.15 6.55 0.15 0 6 0 6 -6.60 0.15 c-3.60 0.05 -6.70 -0.05 -6.85 -0.30z"/>
  <path d="M43.85 79.65 c-0.20 -0.15 -0.35 -2.85 -0.35 -6 l0 -5.70 6.90 0.15 6.85 0.15 0.15 5.45 c0.10 4.05 -0.05 5.60 -0.50 5.90 -0.80 0.45 -12.60 0.55 -13.05 0.05z"/>
 </g>
 <g fill="currentColor">
  <path d="M93.35 128.50 l-1.35 -1.05 0 -8 c0 -7.90 0 -8 1.25 -9.25 1.25 -1.25 1.50 -1.30 6.25 -1.10 6 0.20 6.55 0.60 6.90 4.65 l0.25 2.80 -2.20 -0.15 c-2.10 -0.15 -2.20 -0.25 -2.35 -1.80 l-0.15 -1.65 -2.85 0.15 -2.85 0.15 0 6 0 6 2.90 0.15 c2.05 0.10 2.85 -0.05 2.90 -0.50 0.05 -0.35 0.10 -1.10 0.15 -1.65 0.05 -0.80 0.45 -1.05 2.25 -1.15 l2.20 -0.15 -0.25 2.70 c-0.35 4.05 -1.05 4.55 -6.85 4.75 -4.30 0.15 -4.95 0.05 -6.20 -0.90z"/>
  <path d="M110.65 128.30 l-1.40 -1.20 -0.15 -8.20 c-0.05 -4.45 -0.15 -8.60 -0.25 -9.10 -0.20 -1.80 1.85 -2.35 8.55 -2.20 8.10 0.20 8.10 0.20 8.10 8.20 0 4.75 -0.15 5.70 -0.75 5.70 -0.60 0 -0.75 0.65 -0.75 2.75 0 2.30 -0.20 3 -1.25 4 -1.10 1.15 -1.60 1.25 -5.95 1.25 -4.30 0 -4.90 -0.10 -6.15 -1.20z m9.25 -5.05 c0.10 -1.30 -0.05 -2.15 -0.60 -2.50 -0.45 -0.35 -0.80 -1.60 -0.90 -3.30 -0.15 -2.65 -0.20 -2.70 -1.75 -2.85 -1.60 -0.15 -1.65 -0.10 -1.65 1.60 0 1.75 -0.65 2.40 -1.15 1.20 -0.15 -0.35 -0.30 1.35 -0.30 3.75 l-0.05 4.40 3.15 -0.15 3.10 -0.15 0.15 -2z"/>
  <path d="M127.85 129.15 c-0.20 -0.15 -0.35 -2.05 -0.35 -4.20 0 -3.30 -0.10 -3.85 -0.75 -3.65 -0.70 0.30 -0.75 -0.55 -0.65 -6.60 l0.15 -6.95 24.15 -0.15 24.10 -0.10 0 3.50 0 3.50 -4.50 0 c-2.65 0 -4.50 0.20 -4.50 0.50 0 0.30 1.60 0.50 3.75 0.50 3 0 3.75 0.15 3.75 0.75 0 0.40 -0.35 0.75 -0.75 0.75 -0.55 0 -0.75 0.55 -0.75 2 l0 2 -3.75 0 -3.75 0 0 2.25 0 2.25 4.50 0 4.50 0 0 2 0 2 -6.50 0 -6.50 0 0 -5.50 c0 -4.55 -0.15 -5.50 -0.75 -5.50 -0.55 0 -0.75 -0.55 -0.75 -2 l0 -2 -4.50 0 c-5.40 0 -6.10 0.90 -0.85 1.10 3.50 0.15 3.60 0.20 3.75 1.55 0.10 0.95 -0.05 1.35 -0.60 1.35 -0.50 0 -0.80 0.45 -0.80 1.25 0 1.20 -0.10 1.25 -3.75 1.25 l-3.75 0 0 4.25 0 4.25 -2 0 -2 0 -0.05 -3.85 c-0.05 -2.15 -0.05 -4.30 0 -4.75 0.05 -0.50 -0.20 -0.90 -0.65 -0.90 -0.65 0 -0.80 -0.60 -0.80 -2.75 l0 -2.75 -4.50 0 c-5.40 0 -6.10 0.90 -0.85 1.10 l3.60 0.15 0.15 2 c0.10 1.75 -0.05 2.10 -1.25 2.65 -0.75 0.30 -2.75 0.60 -4.50 0.60 l-3.15 0 0 4.25 0 4.25 -1.90 0 c-1.05 0 -2.10 -0.15 -2.25 -0.35z"/>
  <path d="M176.50 123.25 c0 -5.20 -0.10 -6.25 -0.75 -6.25 -0.60 0 -0.75 -0.85 -0.75 -4.75 l0 -4.75 8.15 0.10 8.10 0.15 0.15 3.40 0.15 3.35 -4.55 0 c-5.40 0 -6.20 0.95 -0.85 1.10 l3.60 0.05 -4.10 0.30 c-5.15 0.40 -5.95 1.05 -1.25 1.05 l3.60 0 0 2 0 1.95 -3.60 0.15 -3.55 0.15 0 2 0 2 4.60 0.15 4.60 0.15 -0.15 1.85 -0.15 1.85 -6.60 0.15 -6.65 0.15 0 -6.30z"/>
  <path d="M201.30 128.45 c-1.20 -0.95 -1.30 -1.35 -1.30 -4.55 0 -2.80 0.20 -3.70 0.85 -4.15 0.85 -0.65 0.85 -0.70 0 -1.60 -0.45 -0.55 -0.85 -1.45 -0.85 -2.05 0 -0.65 -0.30 -1.10 -0.75 -1.10 -0.55 0 -0.75 -0.55 -0.75 -1.85 0 -4.80 1.30 -5.65 8.40 -5.65 4.25 0 5.15 0.15 6.30 1.05 1.65 1.30 1.80 3.95 0.30 5.45 -1.10 1.10 -4.30 1.40 -4.60 0.45 -0.15 -0.40 -0.90 -0.45 -2.30 -0.20 -1.80 0.30 -2.10 0.50 -2.10 1.55 0 1.20 0 1.20 5.75 1.20 l5.75 0 0 2 c0 1.65 -0.15 2 -1 2 -0.90 0 -1 0.35 -1 3.20 0 2.90 -0.15 3.35 -1.30 4.25 -1.10 0.90 -2.05 1.05 -5.70 1.05 -3.65 0 -4.60 -0.15 -5.70 -1.05z m8.70 -5.20 l0 -2.30 -2.85 0.15 c-2.75 0.15 -2.90 0.20 -3.05 1.55 -0.30 2.45 0.15 2.85 3.15 2.85 l2.75 0 0 -2.25z"/>
  <path d="M229 121.25 l0 -8.25 -3.25 0 -3.25 0 0 -2.75 0 -2.75 14.80 0 c12.95 0.05 14.70 0.15 14.20 0.75 -0.55 0.65 -0.35 0.75 1.20 0.75 1.75 0 1.80 0.05 1.80 2 l0 2 -4.50 0 -4.50 0 0 2 0 2 3.40 0 c1.90 0 3.55 0.10 3.65 0.25 0.15 0.10 0.15 1 0.05 2 l-0.20 1.75 -3.45 0 -3.45 0 0 2.25 0 2.25 4.50 0 4.50 0 0 2 0 2.05 -6.60 -0.15 -6.65 -0.15 -0.15 -9.05 -0.10 -9.05 -1.25 0.25 c-0.70 0.10 -1.25 0.55 -1.25 0.90 0 0.50 -0.75 0.70 -2.75 0.70 l-2.75 0 0 8.25 0 8.25 -2 0 -2 0 0 -8.25z"/>
  <path d="M256.15 128.90 c0.10 -0.35 1.15 -3.70 2.30 -7.40 1.20 -3.70 2.60 -8.05 3.15 -9.60 l1.05 -2.90 2.35 0 2.30 0 3.20 9.90 c1.75 5.40 3.10 9.95 3.10 10.10 -0.05 0.15 -1.05 0.25 -2.15 0.25 -2 0 -2.10 -0.10 -2.90 -2.20 -0.45 -1.25 -0.95 -2.20 -1.15 -2.15 -0.25 0.05 -1.60 0.10 -3.10 0.10 l-2.65 0 -0.65 2.25 c-0.65 2.25 -0.65 2.25 -2.85 2.25 -1.60 0 -2.20 -0.20 -2 -0.60z m10.35 -8.55 c0 -0.25 -0.35 -1.70 -0.80 -3.25 l-0.85 -2.85 -0.90 2.75 c-1.25 3.75 -1.20 3.90 0.80 3.85 0.95 -0.05 1.75 -0.25 1.75 -0.50z"/>
  <path d="M107 99.90 c0 -0.35 -1.20 -1.10 -2.60 -1.65 -3.35 -1.30 -4.45 -3.10 -4.80 -7.75 l-0.25 -3.45 2.70 -0.15 c1.85 -0.10 2.65 -0.35 2.60 -0.75 -0.10 -0.45 0.50 -0.65 1.80 -0.65 l2 0 0.15 2.40 0.15 2.35 3.75 0 3.75 0 0 -1.75 0 -1.75 -4 -0.95 c-7.50 -1.75 -7.70 -1.80 -8 -2.85 -0.20 -0.55 -1.25 -1.85 -2.40 -2.90 l-2.05 -1.90 -0.20 -4.45 c-0.15 -3.40 0 -5 0.65 -6.70 0.50 -1.25 0.85 -2.85 0.85 -3.60 -0.10 -2.35 1.20 -2.65 10.90 -2.65 9.70 0 11.10 0.30 13.05 2.90 1 1.35 1.20 2.30 1.35 6.40 l0.20 4.80 -4.80 0.35 c-2.70 0.15 -5.05 0.20 -5.35 0.05 -0.25 -0.20 -0.45 -1.15 -0.45 -2.25 0 -2.15 -0.50 -2.50 -3.55 -2.50 -2.50 0 -3.95 0.75 -3.95 2 0 1.35 0.95 1.75 7 3 6.05 1.25 8.85 2.45 10.25 4.40 0.90 1.20 1 2.15 1 8.60 0 6.15 -0.15 7.50 -0.90 8.65 -1.80 2.75 -2.90 3.10 -11.20 3.25 -6.15 0.15 -7.65 0.05 -7.65 -0.50z"/>
  <path d="M204.75 100.15 l-4 -0.20 -2.35 -7.85 c-1.25 -4.30 -3.60 -12 -5.20 -17.10 -1.60 -5.10 -2.95 -10.35 -3.10 -11.65 l-0.20 -2.40 5.65 0.15 5.65 0.15 1.10 4 c0.60 2.20 1.85 6.90 2.75 10.45 l1.65 6.40 2.75 -10.40 2.80 -10.45 5.40 -0.15 5.35 -0.15 0 2.35 c0 2.15 -3.15 13.15 -8.90 31.20 l-1.85 5.75 -1.75 0.05 c-0.95 0 -3.55 -0.05 -5.75 -0.15z"/>
  <path d="M222.40 100.15 l-3.40 -0.20 0 -2 c0 -1.05 1.25 -5.75 2.75 -10.35 1.50 -4.60 4.05 -12.40 5.65 -17.35 l2.95 -9 5.90 0 c5.85 0 5.90 0 6.30 1.25 1.70 5.55 10.10 31.50 10.50 32.40 0.55 1.45 0.60 4.95 0 5.30 -0.20 0.15 -2.65 0.15 -5.45 -0.05 l-5 -0.30 -1.15 -3.95 -1.10 -3.95 -4.25 0.15 -4.30 0.15 -1.25 4 c-1.45 4.55 -0.95 4.30 -8.15 3.90z m14.45 -20.45 c-0.55 -2.35 -0.95 -2.20 -1.60 0.70 -0.30 1.45 -0.20 1.60 0.90 1.60 1.20 0 1.20 -0.05 0.70 -2.30z"/>
  <path d="M130.30 99.20 c-0.15 -0.45 -0.30 -8.85 -0.30 -18.70 0 -9.85 0.15 -18.25 0.30 -18.70 0.25 -0.70 1.95 -0.80 13.50 -0.80 l13.20 0 0 5 0 5 -8.25 0 -8.25 0 0 2 0 2 6.75 0 6.75 0 0 5 0 5 -6.75 0 -6.75 0 0 2.50 0 2.50 8.25 0 8.25 0 0 5 0 5 -13.20 0 c-11.55 0 -13.25 -0.10 -13.50 -0.80z"/>
  <path d="M160 80.50 l0 -19.50 11.90 0 c10.85 0 12 0.10 13.45 1 2.95 1.80 3.35 2.95 3.55 10.45 0.25 7.75 -0.25 10.25 -2.35 12.25 l-1.45 1.40 2.20 5 c1.35 3.10 2.20 5.80 2.20 6.95 l0 1.95 -5.40 0 -5.40 0 -0.65 -1.85 c-0.40 -1.05 -1.30 -3.20 -2.10 -4.80 -0.75 -1.60 -1.65 -3.70 -1.95 -4.65 -0.50 -1.40 -0.80 -1.70 -2.05 -1.70 l-1.45 0 0 6.50 0 6.50 -5.25 0 -5.25 0 0 -19.50z m17.90 -6.60 l0.15 -2.90 -3.80 0 -3.75 0 0 3 0 3.05 3.65 -0.15 3.60 -0.15 0.15 -2.85z"/>
  <path d="M283.20 98.55 c-0.10 -0.10 -0.20 -8.30 -0.20 -18.15 l0 -17.90 3.75 0 3.75 0 0 17.95 0 17.95 -3.55 0.20 c-1.95 0.10 -3.65 0.05 -3.75 -0.05z"/>
  <path d="M300.65 98.05 c-3.75 -1.75 -3.90 -2.35 -3.90 -17.55 0 -15.20 0.15 -15.80 3.90 -17.55 3.10 -1.35 15.60 -1.35 18.70 0 3.75 1.75 3.90 2.35 3.90 17.55 0 15.15 -0.10 15.55 -3.75 17.40 -2 1 -2.90 1.10 -9.50 1.10 -6.05 0 -7.60 -0.20 -9.35 -0.95z m14.35 -6.55 c0.60 -0.35 0.75 -2.25 0.75 -11 0.05 -9.50 -0.05 -10.65 -0.85 -11.05 -1.25 -0.70 -9.60 -0.55 -10.30 0.15 -0.45 0.45 -0.60 3.55 -0.60 11 0 9.35 0.10 10.40 0.90 10.85 1.05 0.65 9.10 0.70 10.10 0.05z"/>
  <path d="M6.25 97.85 c-0.15 -0.30 -0.20 -8.35 -0.15 -17.85 l0.15 -17.25 10.40 -0.15 c9.90 -0.10 10.55 -0.05 12.15 0.95 2.80 1.70 3.20 3.05 3.20 10.75 0 10.50 -0.80 11.30 -11.45 11.70 l-6.65 0.25 0.05 6.15 0.10 6.10 -3.80 0 c-2.55 0 -3.85 -0.20 -4 -0.65z m18 -23.60 l0 -4.50 -5.10 -0.15 -5.10 -0.15 -0.15 4.60 c-0.10 2.50 -0.05 4.65 0.05 4.75 0.15 0.15 2.50 0.15 5.25 0.10 l5.05 -0.15 0 -4.50z"/>
  <path d="M37.80 81.35 c0 -9.40 0.05 -17.50 0.10 -17.95 0.10 -0.85 0.95 -0.90 10.35 -0.90 11.45 0 12.50 0.25 14.25 3.15 0.85 1.35 1 2.55 1 8 0 3.60 -0.25 6.90 -0.55 7.50 -0.30 0.60 -1.35 1.80 -2.30 2.65 l-1.80 1.55 2.85 6.35 c1.55 3.50 2.80 6.45 2.80 6.60 0 0.10 -1.75 0.20 -3.95 0.20 l-3.90 0 -2.65 -6.10 c-1.50 -3.40 -2.85 -6.35 -3.05 -6.65 -0.20 -0.25 -1.60 -0.40 -3.15 -0.35 l-2.80 0.20 0 6.45 0 6.45 -3.60 0 -3.65 0 0.05 -17.15z m17.60 -3.30 c0.45 -0.25 0.60 -1.50 0.50 -4.35 l-0.15 -3.95 -5.35 -0.15 -5.40 -0.15 0 4.20 c0 2.30 0.15 4.35 0.35 4.50 0.45 0.50 9.25 0.40 10.05 -0.10z"/>
  <path d="M70.50 80.50 l0 -18 12 0 12 0 0 3.50 0 3.50 -8.25 0 -8.25 0 0 3.50 0 3.50 6.50 0 6.50 0 0 3.50 0 3.50 -6.50 0 -6.50 0 0 4 0 4 8.25 0 8.25 0 0 3.50 0 3.50 -12 0 -12 0 0 -18z"/>
  <path d="M260.45 83.90 c-0.10 -13.15 -0.15 -14.20 -0.65 -10.40 l-0.55 4.25 -0.15 -3.35 -0.15 -3.40 -4.10 0 c-2.25 0 -4.40 -0.20 -4.75 -0.40 -0.45 -0.30 -0.60 -1.65 -0.50 -4.90 l0.15 -4.45 4.70 -0.15 c3.85 -0.10 4.80 0 5.15 0.65 0.40 0.65 1.85 0.75 9.15 0.75 l8.75 0 0 3.40 0 3.35 -4.60 0 -4.65 0 -0.15 14.65 -0.10 14.60 -3.75 0 -3.75 0 -0.05 -14.60z"/>
  <path d="M329.60 80.65 l0.15 -17.90 4 -0.15 4.05 -0.15 1.05 2.15 c1.40 2.70 5.80 10.90 8.80 16.35 1.30 2.30 2.35 4.35 2.35 4.60 0 0.25 0.15 0.45 0.40 0.45 0.20 0 0.30 -5.30 0.20 -11.75 l-0.15 -11.80 3.65 0.15 3.65 0.15 0 17.75 0 17.75 -4.05 0.15 -4.10 0.15 -4.50 -8.40 c-2.45 -4.60 -5.35 -10 -6.40 -12 l-1.95 -3.60 -0.15 11.95 -0.10 12 -3.50 0 -3.50 0 0.10 -17.85z"/>
 </g>
 <g fill="#7dccd9">
  <path d="M124 116.55 c0 -7.05 -0.25 -7.30 -7.15 -7.30 -4.80 0 -5.40 0.10 -6.50 1.15 l-1.20 1.15 -0.60 -2.15 c-0.50 -1.95 -1.50 -8.25 -1.55 -9.75 0 -0.40 2.10 -0.60 6.90 -0.75 7.50 -0.15 8.70 -0.55 10.45 -3.25 0.75 -1.10 0.90 -2.45 0.90 -7.15 0 -4.95 -0.15 -5.95 -1 -7.10 -1.40 -1.95 -4.20 -3.15 -10.25 -4.40 -6.95 -1.45 -7 -1.50 -7 -4.50 0 -1.95 0.20 -2.60 0.95 -3 1.10 -0.55 8 -0.65 8.90 -0.10 0.30 0.20 0.65 1.25 0.75 2.35 0.10 1.20 0.40 2 0.80 1.95 0.30 -0.05 2 -0.10 3.65 -0.10 l3.10 -0.10 -0.25 -3.40 c-0.20 -2.55 -0.55 -3.85 -1.40 -5 -1.80 -2.45 -3.40 -2.85 -11.50 -2.85 -6.15 0 -7.50 0.15 -8.65 0.90 -1.55 1 -2.35 0.75 -2.35 -0.65 0 -1.45 -2.95 -19.95 -3.50 -22.05 -1.10 -4.15 -3.85 -5.95 -9.80 -6.50 -4.90 -0.45 -6.75 -1.30 -8.60 -4.05 -1.30 -1.95 -1.35 -2.40 -1.50 -8.95 l-0.15 -6.85 4.65 -0.35 c2.55 -0.15 6.45 -0.50 8.65 -0.80 5.25 -0.60 9.85 -0.55 11.60 0.10 1.85 0.65 4.40 3.20 5.20 5 l0.60 1.45 1.10 -2.40 c1.10 -2.30 3 -4.20 5.70 -5.60 1.10 -0.55 21.50 -2.70 22.95 -2.40 1.15 0.25 0.85 12.45 -0.40 14.85 -1.75 3.50 -4.60 5.65 -8.25 6.30 -3.90 0.75 -7.40 3.20 -9.15 6.50 -1.10 2.05 -1.05 7 0.05 9.10 0.45 0.90 1.70 2.25 2.70 3 1.75 1.35 2 1.40 7.60 1.35 3.20 0 11.10 -0.55 17.55 -1.15 16.60 -1.55 21.05 -1.95 31.25 -2.80 4.95 -0.40 19.45 -1.70 32.25 -2.85 20.45 -1.80 23.65 -2 26.65 -1.45 9.70 1.65 17.60 8.40 20.85 17.75 l0.95 2.75 -4.35 0.15 -4.35 0.15 -0.15 3.10 c-0.15 3 -0.10 3.15 1.15 3.45 0.70 0.15 2.80 0.25 4.65 0.10 l3.35 -0.15 -0.15 1.75 c-0.10 0.95 -0.85 6.05 -1.60 11.25 -0.80 5.25 -1.80 11.95 -2.25 14.95 -0.90 5.85 -2.35 9.50 -4.35 10.80 -0.70 0.45 -2.90 0.85 -5.90 1 -3.80 0.20 -4.75 0.40 -4.75 1 0 0.90 -0.70 1.50 -1.85 1.50 -0.55 0 -0.90 -0.40 -0.90 -0.95 0 -1.40 -0.90 -1.55 -8.05 -1.55 l-6.45 0 0 2 0 2 -2.85 0.05 c-1.60 0 -4.10 0.20 -5.50 0.40 -2.65 0.35 -2.65 0.35 -2.65 -1 0 -2.30 -2 -3.45 -6.10 -3.45 -5.15 0 -6.85 1.20 -6.90 4.90 0 0.80 -0.30 1.10 -1.10 1.15 -0.65 0 -4.85 0.30 -9.40 0.65 -4.55 0.35 -8.40 0.55 -8.60 0.45 -0.25 -0.10 -0.40 -0.85 -0.40 -1.70 l0 -1.45 4.80 0 4.75 0 -0.15 -1.85 -0.15 -1.90 -6.60 -0.15 -6.65 -0.15 0 4.05 0 4 -6.25 0 -6.25 0 0 -2 0 -2 4.50 0 4.50 0 0 -2 0 -2 -6.50 0 -6.50 0 0 4.75 0 4.75 -2.20 0 c-1.50 0 -2.30 -0.25 -2.50 -0.75 -0.20 -0.55 -1.10 -0.75 -3.80 -0.75 l-3.50 0 0 -2 0 -2 4.50 0 4.50 0 0 -2 0 -2 -6.50 0 -6.50 0 0 5.50 0 5.50 -2.20 0 c-2.05 0 -2.25 -0.10 -2.40 -1.35 -0.15 -1.35 -0.25 -1.40 -3.75 -1.55 l-3.65 -0.15 0 -1.95 0 -2 4.50 0 4.50 0 0 -2 0 -2.05 -6.60 0.15 -6.65 0.15 0.05 5.75 c0 3.55 -0.20 5.90 -0.50 6.10 -0.30 0.20 -1.15 0.40 -1.90 0.40 l-1.40 0 0 -4.95z m88.65 -23.70 c5.50 -17.65 8.85 -28.80 8.85 -29.55 0 -0.75 -0.55 -0.80 -3.85 -0.70 l-3.90 0.15 -3.05 11.50 c-1.70 6.35 -3.25 12.15 -3.40 12.95 -0.20 0.85 -0.50 1.30 -0.75 1 -0.20 -0.25 -1.70 -5.60 -3.30 -11.95 -1.60 -6.30 -3.10 -12 -3.30 -12.60 -0.40 -1.05 -0.75 -1.15 -4.50 -1.15 -3.65 0 -4.05 0.10 -3.80 0.90 0.10 0.45 1.50 5 3.10 10.10 1.55 5.10 3.90 12.80 5.15 17.10 l2.35 7.85 4 0.15 c2.20 0.10 4.15 0.10 4.35 0 0.15 -0.05 1.10 -2.65 2.05 -5.75z m16.45 1.65 l1.20 -3.75 5.75 -0.15 5.80 -0.15 1.15 4 1.10 4 3.75 0.15 c2.05 0.10 3.85 0 3.95 -0.20 0.15 -0.20 -0.70 -3.25 -1.85 -6.75 -4.15 -12.80 -8.55 -26.45 -8.90 -27.65 -0.35 -1.20 -0.50 -1.25 -4.80 -1.25 l-4.40 0 -2.95 9 c-1.60 4.95 -4.15 12.75 -5.65 17.35 -1.50 4.60 -2.75 8.60 -2.75 8.85 0 0.50 6.45 1 7.10 0.55 0.20 -0.15 0.85 -1.95 1.50 -4z m-73.60 0.50 l0 -3.50 -8.25 0 -8.25 0 0 -4 0 -4 6.75 0 6.75 0 0 -3.50 0 -3.50 -6.75 0 -6.75 0 0 -3.50 0 -3.50 8.25 0 8.25 0 0 -3.50 0 -3.50 -11.70 0 c-10.20 0 -11.75 0.10 -12 0.80 -0.40 1 -0.40 33.40 0 34.40 0.25 0.70 1.80 0.80 12 0.80 l11.70 0 0 -3.50z m13.50 -3.10 l0 -6.65 2.95 0.15 c2.90 0.20 3 0.25 3.55 1.85 0.30 0.95 1.20 3 1.95 4.60 0.80 1.60 1.70 3.75 2.10 4.80 l0.65 1.85 3.90 0 c2.15 0 3.90 -0.20 3.90 -0.45 0 -0.20 -1.20 -3.20 -2.70 -6.60 l-2.70 -6.20 1.95 -1.65 c2.55 -2.20 3.10 -4.40 2.85 -11.20 -0.25 -5.85 -0.80 -7.25 -3.55 -8.90 -1.45 -0.90 -2.55 -1 -11.95 -1 l-10.40 0 0 18 0 18 3.75 0 3.75 0 0 -6.60z"/>
  <path d="M232.65 82.65 c0.15 -0.50 0.80 -2.85 1.50 -5.20 0.65 -2.35 1.45 -4.70 1.75 -5.25 0.55 -0.95 0.40 -1.35 2.85 7.50 0.40 1.50 0.75 2.95 0.75 3.25 0 0.35 -1.30 0.55 -3.55 0.55 -3.15 0 -3.55 -0.10 -3.30 -0.85z"/>
  <path d="M169 74 l0 -4.55 5.30 0.15 5.25 0.15 0.15 3.75 c0.10 2.05 -0.10 4.05 -0.35 4.40 -0.30 0.40 -2.05 0.60 -5.40 0.60 l-4.95 0 0 -4.50z"/>
  <path d="M117 119.45 c-3.20 -1.75 -3.50 -2.10 -3.50 -4.55 l0 -1.90 3 0 c2.10 0 3.10 0.20 3.30 0.65 0.15 0.40 0.20 2.20 0.10 4 l-0.15 3.30 -2.75 -1.50z"/>
  <path d="M204.50 113.80 c0 -0.60 0.50 -0.80 1.95 -0.80 1.10 0 2.15 0.25 2.30 0.50 0.15 0.30 0 0.50 -0.40 0.50 -0.40 0 -1.45 0.15 -2.30 0.30 -1.20 0.25 -1.55 0.15 -1.55 -0.50z"/>
  <path d="M107.35 91.70 c-0.20 -0.20 -0.35 -1.35 -0.35 -2.55 0 -1.90 -0.15 -2.15 -1.15 -2.15 -0.95 0 -1.15 -0.30 -1.25 -1.60 -0.05 -0.90 -0.25 -2.05 -0.40 -2.55 -0.25 -0.75 -0.10 -0.90 0.65 -0.65 0.50 0.15 3.50 0.85 6.65 1.55 3.15 0.70 5.90 1.45 6.15 1.70 0.20 0.20 0.35 1.75 0.25 3.35 l-0.15 2.95 -5.05 0.15 c-2.75 0.05 -5.15 0 -5.35 -0.20z"/>
 </g>
</svg>